<?xml version="1.0" encoding="UTF-8" standalone="no"?>
<svg
   xmlns:dc="http://purl.org/dc/elements/1.1/"
   xmlns:cc="http://creativecommons.org/ns#"
   xmlns:rdf="http://www.w3.org/1999/02/22-rdf-syntax-ns#"
   xmlns:svg="http://www.w3.org/2000/svg"
   xmlns="http://www.w3.org/2000/svg"
   xmlns:sodipodi="http://sodipodi.sourceforge.net/DTD/sodipodi-0.dtd"
   xmlns:inkscape="http://www.inkscape.org/namespaces/inkscape"
   version="1.2"
   width="481.84619"
   height="702.18787"
   viewBox="0 0 481.84619 702.18787"
   stroke-linecap="round"
   stroke-linejoin="round"
   id="svg46"
   sodipodi:docname="electoral_map_icon.svg"
   inkscape:version="1.0.1 (3bc2e813f5, 2020-09-07)">
  <metadata
     id="metadata52">
    <rdf:RDF>
      <cc:Work
         rdf:about="">
        <dc:format>image/svg+xml</dc:format>
        <dc:type
           rdf:resource="http://purl.org/dc/dcmitype/StillImage" />
        <dc:title></dc:title>
      </cc:Work>
    </rdf:RDF>
  </metadata>
  <defs
     id="defs50" />
  <sodipodi:namedview
     pagecolor="#ffffff"
     bordercolor="#666666"
     borderopacity="1"
     objecttolerance="10"
     gridtolerance="10"
     guidetolerance="10"
     inkscape:pageopacity="0"
     inkscape:pageshadow="2"
     inkscape:window-width="1920"
     inkscape:window-height="991"
     id="namedview48"
     showgrid="false"
     inkscape:zoom="0.84169813"
     inkscape:cx="398.48502"
     inkscape:cy="345.32647"
     inkscape:window-x="-9"
     inkscape:window-y="-9"
     inkscape:window-maximized="1"
     inkscape:current-layer="svg46" />
  <g
     id="electoral_map_5-0"
     transform="matrix(0.60284435,0,0,1,-0.21463432,-0.35603769)"
     style="fill:#000000;fill-opacity:1;stroke:#000000;stroke-width:1.28795;stroke-opacity:1">
    <path
       d="m 748.46,385.09 -6.04,8.27 -19.8,-9.53 5.66,-13.22 11.63,-3.71 8.29,2.48 5.43,1.48 z"
       id="0-3"
       style="fill:#000000;fill-opacity:1;stroke:#000000;stroke-width:1.28795;stroke-opacity:1" />
    <path
       d="m 381.41,646.61 0.71,8.8 -32.39,6.88 -4.73,5.58 -27.22,4.98 -1.95,8.72 -28.21,-4.55 -9.74,9.74 -13.87,-4.71 -43.08,14.95 -23.64,2.61 -12.83,-10.89 -66.58,13.18 12.45,-12.03 -6.57,-10.05 21.16,-8.16 37.12,-10.05 -12.76,-9.06 -16.51,9.09 -13.67,0.4 -40.71,7.01 -21.64,8.66 -1.24,-13.91 14.63,-2.9 -0.08,-9.07 20.83,-2.83 11.68,10.57 30.22,-16.68 25.4,-0.75 21.74,-8.31 21.73,9.28 2.83,12.68 21.44,-7.11 7.55,7.07 56.3,-11.58 23.83,-2.33 -3.8,-8.99 12.45,-1.65 1.01,5.58 z"
       id="1-7"
       style="fill:#000000;fill-opacity:1;stroke:#000000;stroke-width:1.28795;stroke-opacity:1" />
    <path
       d="m 142.64,501.84 7.92,-4.75 52.05,1.74 -0.64,8.61 9.15,8.16 -7.65,5.96 6.58,13.21 -7.88,5.04 23.25,11.22 -10.49,12.29 12.16,22.27 -2.24,8.96 14.83,13.03 -29.63,6.52 4.35,9.32 -14.47,10.41 -21.74,8.31 -25.4,0.75 -30.22,16.68 -11.68,-10.57 12.16,-8.37 -7.28,-4.91 -54.86,14.5 -6.61,-14.42 -19.76,3.87 -20.7,-13.55 26.85,-5.64 -10.82,-9.2 9.29,-5.36 48.86,-10.55 23.99,-11.68 -2.61,-7.82 -33.33,4.09 -13.93,4.06 -15.37,-1.75 -42.62,4.78 -3.15,-6.79 10.57,-12.85 41.6,-15.02 7.43,9.33 20.9,-5.04 12.6,6.26 20.6,-16.69 -5.54,-18.29 31.71,-10.04 z"
       id="2-1"
       style="fill:#000000;fill-opacity:1;stroke:#000000;stroke-width:1.28795;stroke-opacity:1" />
    <path
       d="m 144.43,315.49 18.77,0.04 14.95,9.01 21.58,-2.02 22.27,16.72 -4.19,5.47 28.31,8.38 14.85,-2.74 30.44,7.35 -4.73,11.2 6.2,12.26 -5.81,5.88 -12.36,-7.99 -74.92,2.79 -26.96,3.57 -11.96,-4.36 -11.93,-19.14 -9.37,-1.16 -13.85,10.72 -19.41,-2.1 -1.22,-10.11 -21.85,-2.13 -8.42,-13.73 -15.57,-15.17 17.15,-12.13 46.66,2.72 z"
       id="3-4"
       style="fill:#000000;fill-opacity:1;stroke:#000000;stroke-width:1.28795;stroke-opacity:1" />
    <path
       d="m 746.39,353.19 -7.99,-10.86 4.15,-4.08 -18.24,-10.39 39.4,-16.11 23.91,14.42 -17.56,9.47 -17.62,0.07 8.34,11.99 -0.54,5.41 z"
       id="4-4"
       style="fill:#000000;fill-opacity:1;stroke:#000000;stroke-width:1.28795;stroke-opacity:1" />
    <path
       d="m 777.46,351.95 -16.68,-4.25 -8.34,-11.99 17.62,-0.07 -3.51,6.72 z"
       id="5-6"
       style="fill:#000000;fill-opacity:1;stroke:#000000;stroke-width:1.28795;stroke-opacity:1" />
    <path
       d="m 419.4,138.02 -9.4,-6.63 -16.82,6.36 -36.99,-5.44 -33.67,2.74 -17.49,-6.75 -0.96,-7.94 20.37,-12.09 22.99,0.83 22.42,-43.23 17.22,-12.29 4.43,-13.97 22.95,1.27 25.79,-5.92 7.76,-8.08 18.25,3.78 44.02,-11.52 10.05,15.52 17.1,-18.06 25.72,-5.36 0.11,-10.24 27.68,5.07 4.4,6.67 38.64,10.16 -3.21,6.44 -36.25,10.82 -18.02,14.83 -15.6,2.86 -18.5,21.58 0.95,10.57 -19.02,14.69 -35.3,15.21 -19.41,-4.04 -10.61,9.14 27.54,14.63 -19.59,10.71 -24.46,-2.03 -6.11,-9.35 z"
       id="6-0"
       style="fill:#000000;fill-opacity:1;stroke:#000000;stroke-width:1.28795;stroke-opacity:1" />
    <path
       d="m 92.61,247.91 5.94,6.02 -6.64,14.68 -19.03,-17.54 z m 148.09,-30.88 34.6,3.46 -5.36,20.77 33.41,10.9 24.21,-12.04 11.57,3.69 -0.4,10.58 -14.07,-3.04 -5.72,21.31 2.76,17.67 -5.87,7.37 -19.83,8.47 -15.83,3.75 -23.21,13.6 0.75,5.76 -17.89,10.5 -17.82,-0.54 -22.27,-16.72 -21.58,2.02 -14.95,-9.01 -18.77,-0.04 -20.58,1.8 -22.6,-8.79 1.78,-20.17 58.78,-4.03 -8.06,-10.39 9.44,-8.41 -37.7,-2.11 -7.21,4.62 -22.01,1.13 5.99,-14.28 10.15,-7.94 -20.6,-13.82 5.24,-19.62 -14.23,-1.52 -10.1,-15.41 10.44,-2.65 21.52,6.6 14.87,-5.89 0.47,-9.85 25.36,5.05 71.63,0.77 z"
       fill-rule="evenodd"
       id="7-2"
       style="fill:#000000;fill-opacity:1;stroke:#000000;stroke-width:1.60237;stroke-opacity:1" />
    <path
       d="m 453.18,191.53 -11.4,10.09 10.2,12.45 23.42,14.77 11.79,-1.77 17.71,8.95 13,13.52 -4.52,7.62 -8.49,0.18 -23.4,21.68 -23.38,-0.92 -16.84,-19.66 -8.79,3.87 -5.3,-22.2 6.85,-12.75 -17.05,-3.51 -12.57,11.24 -13.62,3.01 -17.43,14.23 -22.85,6.93 -11.78,-4.87 0.4,-10.58 -11.57,-3.69 -24.21,12.04 -33.41,-10.9 5.36,-20.77 -34.6,-3.46 1.85,-7.16 17.54,-16.91 15.84,0.69 19.56,7.17 29.87,-3.38 15.49,-5.93 -3.7,-6.79 9.06,-9.9 18.45,-10.23 31.32,-6.62 8.51,-14.79 14.91,-5.16 16.98,0.94 6.11,9.35 -6.41,7.05 -19.13,6.56 -0.94,5.89 z"
       id="8-0"
       style="fill:#000000;fill-opacity:1;stroke:#000000;stroke-width:1.28795;stroke-opacity:1" />
    <path
       d="m 758.4,300.25 -26.79,3.54 -33.53,-22.29 -8.43,-13.85 -12.32,-3.93 13.73,-14.73 4.25,-10.86 40.8,-4.6 17.04,-6.17 30.25,18.75 -11.01,4.12 -23.76,-5.75 -12.23,5.13 -0.75,13.5 22.95,8.32 z"
       id="9-5"
       style="fill:#000000;fill-opacity:1;stroke:#000000;stroke-width:1.28795;stroke-opacity:1" />
    <path
       d="m 628.87,561.37 -6.17,-6.31 1.55,-15.88 23,-20.53 14.62,-21.17 19.94,11.48 9.16,-7.36 15.58,8.94 47.89,6.3 -21.28,24 -12.04,1.75 16.78,16.79 -0.51,13.8 -22.27,-3.67 -19.55,4.13 -16.65,-8.26 -38.78,4.02 z"
       id="10-4"
       style="fill:#000000;fill-opacity:1;stroke:#000000;stroke-width:1.28795;stroke-opacity:1" />
    <path
       d="m 333.77,573.69 10.15,-10.73 -1.51,-13.38 10.92,4.57 20.96,-2.48 36.44,1.24 14.07,14.55 -6.86,11.75 14.75,1.5 6.8,13.59 32.35,18.36 -39.28,26 -34.18,2.66 -0.78,-11.16 -12.87,-1.76 -1.98,-2.52 -4.48,-20.5 11.93,-3.04 -12.05,-17.96 -32.65,0.94 z"
       id="11-7"
       style="fill:#000000;fill-opacity:1;stroke:#000000;stroke-width:1.28795;stroke-opacity:1" />
    <path
       d="m 710.68,449.09 20.29,-1 -5.69,-8.46 25.09,-10.98 25.23,6.59 23.4,0.7 -23.28,28.13 0.98,8.94 -15.77,19.34 6.23,10.9 -12.72,13.59 -47.89,-6.3 -15.58,-8.94 -9.16,7.36 -19.94,-11.48 18.31,-7.1 10.87,-13.71 -14.97,-13.26 7.42,-8.72 16.14,5.87 z"
       id="12-5"
       style="fill:#000000;fill-opacity:1;stroke:#000000;stroke-width:1.28795;stroke-opacity:1" />
    <path
       d="m 622.7,555.06 -6.77,3.47 -23.28,-3.37 -17.4,1.39 -19.2,-13.55 -1.84,-13.85 -14.08,-8.16 1.73,-20.79 -6.03,-7.54 15.44,-3.25 8.23,-14.49 -8.26,-13.03 15.89,-12.68 21.72,-4.92 8.56,8.26 18.41,7.07 18.1,-3.65 -0.34,-9.19 10.7,4.03 16.46,-2.35 9.07,-8.08 40.87,8.71 -11.04,11.47 -16.14,-5.87 -7.42,8.72 14.97,13.26 -10.87,13.71 -18.31,7.1 -14.62,21.17 -23,20.53 z"
       id="13-4"
       style="fill:#000000;fill-opacity:1;stroke:#000000;stroke-width:1.28795;stroke-opacity:1" />
    <path
       d="m 551.24,461.89 -28.25,-3.34 -21.06,5.93 -9.22,-19 10.99,-6.31 -11.84,-6.3 6.01,-12.44 19.78,-13.69 -8.11,-11.56 48.61,-7.22 10.67,13.26 34.91,-6.04 10.91,16.95 -7.75,13.3 19.41,3.78 7.28,17.57 0.34,9.19 -18.1,3.65 -18.41,-7.07 -8.56,-8.26 -21.72,4.92 z"
       id="14-4"
       style="fill:#000000;fill-opacity:1;stroke:#000000;stroke-width:1.28795;stroke-opacity:1" />
    <path
       d="m 710.68,449.09 -40.87,-8.71 -9.85,-13.67 11.79,-13.3 17.4,-4.62 9.03,-9.69 18.57,-15.81 5.87,0.54 19.8,9.53 6.04,-8.27 20.77,0.63 14.23,1.8 10.91,16.24 -1.43,20.18 6.06,12 -23.4,-0.7 -25.23,-6.59 -25.09,10.98 5.69,8.46 z"
       id="15-7"
       style="fill:#000000;fill-opacity:1;stroke:#000000;stroke-width:1.28795;stroke-opacity:1" />
    <path
       d="m 623.32,346.22 6.06,-1.72 27.11,9.39 19.31,-3.39 9.61,4.05 18.56,-1.86 15.52,3 -2.69,4.56 -9.52,8.86 9.47,14.18 -18.57,15.81 -25.99,-2.79 -11.69,-13.31 -1.42,-15.64 -11.18,-8.19 -21.21,-7.24 z"
       id="16-3"
       style="fill:#000000;fill-opacity:1;stroke:#000000;stroke-width:1.28795;stroke-opacity:1" />
    <path
       d="m 633.42,285.32 7.89,-17.86 36.02,-3.74 12.32,3.93 8.43,13.85 33.53,22.29 26.79,-3.54 5.31,11.5 -39.4,16.11 18.24,10.39 -4.15,4.08 -18.91,13.36 -15.52,-3 -18.56,1.86 -9.61,-4.05 0.94,-11.71 9.82,-8.13 6.05,-26.98 -21.58,1.12 -8.67,-12.04 -19.74,6.48 z"
       id="17-3"
       style="fill:#000000;fill-opacity:1;stroke:#000000;stroke-width:1.28795;stroke-opacity:1" />
    <path
       d="m 716.8,360.25 2.69,-4.56 18.91,-13.36 7.99,10.86 -0.29,4.35 2.93,5.35 -10.87,-0.98 z"
       id="18-0"
       style="fill:#000000;fill-opacity:1;stroke:#000000;stroke-width:1.28795;stroke-opacity:1" />
    <path
       d="m 761.16,363.37 -8.02,0.05 -4.11,-0.53 -2.93,-5.35 12.22,0.76 1.69,2.83 z"
       id="19-9"
       style="fill:#000000;fill-opacity:1;stroke:#000000;stroke-width:1.28795;stroke-opacity:1" />
    <path
       d="m 766.22,369.25 -3.74,0.39 -8.85,1.22 -5.43,-1.48 4.94,-5.96 8.02,-0.05 z"
       id="20-5"
       style="fill:#000000;fill-opacity:1;stroke:#000000;stroke-width:1.28795;stroke-opacity:1" />
    <path
       d="m 424.8,567.46 20.76,-6.5 32.46,5.4 11.07,-5.61 -9.07,-10.23 2.94,-7.53 33.01,-3.71 40.08,3.72 19.2,13.55 17.4,-1.39 23.28,3.37 6.77,-3.47 6.17,6.31 -4.65,17.02 -19.18,-4.2 -21.43,6.71 -36.87,0.17 -37.92,8.82 12.45,7.21 -2.9,7.99 -21.38,4.34 -7.64,6.04 -17.51,-2.81 -32.35,-18.36 -6.8,-13.59 -14.75,-1.5 z"
       id="21-9"
       style="fill:#000000;fill-opacity:1;stroke:#000000;stroke-width:1.28795;stroke-opacity:1" />
    <path
       d="m 777.46,351.95 -17.45,9.18 -1.69,-2.83 1.92,-5.19 0.54,-5.41 z"
       id="22-9"
       style="fill:#000000;fill-opacity:1;stroke:#000000;stroke-width:1.28795;stroke-opacity:1" />
    <path
       d="m 556.05,543 -40.08,-3.72 -33.01,3.71 -2.94,7.53 9.07,10.23 -11.07,5.61 -32.46,-5.4 -20.76,6.5 -14.07,-14.55 -1.7,-13.65 -21.67,-12.87 -14.37,-0.95 5.8,-12.42 21.7,-0.34 2.87,-10.69 41.23,-1.03 27.62,-2.52 12.17,-6.81 11.57,2.95 39.88,-1.92 6.03,7.54 -1.73,20.79 14.08,8.16 z"
       id="23-8"
       style="fill:#000000;fill-opacity:1;stroke:#000000;stroke-width:1.28795;stroke-opacity:1" />
    <path
       d="m 381.41,646.61 -38.14,-9.83 -1.01,-5.58 15.4,-9.06 25.09,3.74 1.98,2.52 9.79,12.24 z"
       id="24-8"
       style="fill:#000000;fill-opacity:1;stroke:#000000;stroke-width:1.28795;stroke-opacity:1" />
    <path
       d="m 783.46,387.52 -14.23,-1.8 -6.75,-16.08 3.74,-0.39 18.92,6.73 z"
       id="25-7"
       style="fill:#000000;fill-opacity:1;stroke:#000000;stroke-width:1.28795;stroke-opacity:1" />
    <path
       d="m 695.31,238.13 -4.25,10.86 -13.73,14.73 -36.02,3.74 -7.89,17.86 -11.4,2.75 -24.61,-5.99 -15.71,4.97 -20.55,-4.93 -20.18,-0.58 -3.68,-9.2 -23.91,-15.18 4.52,-7.62 -13,-13.52 -17.71,-8.95 -11.79,1.77 -23.42,-14.77 -10.2,-12.45 11.4,-10.09 10.41,0.74 4.73,14.66 31.16,2.63 21.89,13.88 22.11,-4.91 14.69,4.26 17.47,-1.31 2.64,-11.97 18.91,-8.48 -1.73,-15.01 22.03,-15.4 12.61,4.25 16.83,12.31 8.94,18.24 12.55,7.57 14.39,-1.44 5.92,8.23 -6,14.43 z"
       id="26-7"
       style="fill:#000000;fill-opacity:1;stroke:#000000;stroke-width:1.28795;stroke-opacity:1" />
    <path
       d="m 716.8,360.25 21.36,1.66 1.75,4.99 -11.63,3.71 -5.66,13.22 -5.87,-0.54 -9.47,-14.18 z"
       id="27-6"
       style="fill:#000000;fill-opacity:1;stroke:#000000;stroke-width:1.28795;stroke-opacity:1" />
    <path
       d="m 457.27,360.22 -7.77,-15.51 -2.48,-18.31 -9.91,-9.99 8.66,-16.12 17.57,-10.75 -5.23,-11.44 23.38,0.92 23.4,-21.68 8.49,-0.18 23.91,15.18 3.68,9.2 20.18,0.58 20.39,11.68 0.74,5.47 28.79,10.35 18.79,-0.39 -18.42,32.05 -23.16,8.17 -37.06,16.67 -30.13,-5.5 -10.38,-10.21 -26.33,12.71 z"
       id="28-4"
       style="fill:#000000;fill-opacity:1;stroke:#000000;stroke-width:1.28795;stroke-opacity:1" />
    <path
       d="m 561.15,282.12 20.55,4.93 15.71,-4.97 24.61,5.99 11.4,-2.75 9.2,13.92 19.74,-6.48 8.67,12.04 21.58,-1.12 -6.05,26.98 -9.82,8.13 -0.94,11.71 -19.31,3.39 -27.11,-9.39 -6.06,1.72 -15.17,10.65 -19.87,-7.42 23.16,-8.17 18.42,-32.05 -18.79,0.39 -28.79,-10.35 -0.74,-5.47 z"
       id="29-4"
       style="fill:#000000;fill-opacity:1;stroke:#000000;stroke-width:1.28795;stroke-opacity:1" />
    <path
       d="m 386.81,427.95 -3.9,12.53 -12.37,0.47 -8.56,11.77 -4.44,16.03 -11.46,13.43 -29.55,2.09 -22.27,-1.73 -42.95,5.52 -39.66,12.52 -9.04,-1.75 -52.05,-1.74 -7.92,4.75 -22.89,-5.65 24.91,-13.98 11.33,-11.21 19.08,-0.92 11.51,-23.56 -7.24,-10.98 11.81,-13.64 17.61,-13.17 8.15,-11.08 20.05,6.3 17.81,-6.82 7.94,2.92 -1.79,5.4 23.13,9.8 -1.52,8.56 20.59,6.3 11.49,-9.38 29.6,-3 18.71,12.53 z"
       id="30-1"
       style="fill:#000000;fill-opacity:1;stroke:#000000;stroke-width:1.28795;stroke-opacity:1" />
    <path
       d="m 222,339.24 17.82,0.54 17.89,-10.5 -0.75,-5.76 23.21,-13.6 15.83,-3.75 42.84,-3.98 12.7,12.6 19.45,9.49 3.44,14.74 9.35,12.7 7.57,25.64 16.33,-2.63 12.83,10.57 13.07,-9.12 15.83,8.53 -20.44,10.68 -8.05,1.4 -16.55,16.38 -8.78,2.02 -8.78,12.76 -23.89,2.31 -18.71,-12.53 -29.6,3 -11.49,9.38 -20.59,-6.3 1.52,-8.56 -23.13,-9.8 1.79,-5.4 24.36,-13.01 5.81,-5.88 -6.2,-12.26 4.73,-11.2 -30.44,-7.35 -14.85,2.74 -28.31,-8.38 z"
       id="31-1"
       style="fill:#000000;fill-opacity:1;stroke:#000000;stroke-width:1.28795;stroke-opacity:1" />
    <path
       d="m 395.08,481.09 14.82,3.61 -6.54,17.29 -2.87,10.69 -21.7,0.34 -5.8,12.42 14.37,0.95 21.67,12.87 1.7,13.65 -36.44,-1.24 -20.96,2.48 -10.92,-4.57 -19.59,-13.83 -22.51,-0.63 -14.91,9.86 -22.48,4.04 -23.63,-4.25 -13.87,6.26 -23.25,-11.22 7.88,-5.04 -6.58,-13.21 7.65,-5.96 -9.15,-8.16 0.64,-8.61 9.04,1.75 39.66,-12.52 42.95,-5.52 22.27,1.73 -1.67,8.04 27.48,10.18 35.73,-2.68 -3.2,-4.52 z"
       id="32-3"
       style="fill:#000000;fill-opacity:1;stroke:#000000;stroke-width:1.28795;stroke-opacity:1" />
    <path
       d="m 395.08,481.09 -20.21,14.2 3.2,4.52 -35.73,2.68 -27.48,-10.18 1.67,-8.04 29.55,-2.09 11.46,-13.43 2.7,9.62 18.72,4.36 z"
       id="33-5"
       style="fill:#000000;fill-opacity:1;stroke:#000000;stroke-width:1.28795;stroke-opacity:1" />
    <path
       d="m 428.97,395.39 20.44,-10.68 -15.83,-8.53 23.69,-15.96 27.11,2.9 26.33,-12.71 10.38,10.21 30.13,5.5 37.06,-16.67 19.87,7.42 18.57,13.29 -10.22,5.63 3.88,10.4 -16.65,8.99 -34.91,6.04 -10.67,-13.26 -48.61,7.22 8.11,11.56 -19.78,13.69 -6.01,12.44 -12.83,-4.34 -14.75,14.73 -14.27,7.63 -13.55,-5.74 11.6,-10.73 9.77,-25.04 -3.61,-5.23 z"
       id="34-9"
       style="fill:#000000;fill-opacity:1;stroke:#000000;stroke-width:1.28795;stroke-opacity:1" />
    <path
       d="m 342.41,549.58 1.51,13.38 -10.15,10.73 -15.41,3.75 9.72,10.73 -12.53,17.8 15.97,19.65 -1.71,7.23 3.8,8.99 -23.83,2.33 -56.3,11.58 -7.55,-7.07 -21.44,7.11 -2.83,-12.68 -21.73,-9.28 14.47,-10.41 -4.35,-9.32 29.63,-6.52 -14.83,-13.03 2.24,-8.96 -12.16,-22.27 10.49,-12.29 13.87,-6.26 23.63,4.25 22.48,-4.04 14.91,-9.86 22.51,0.63 z"
       id="35-3"
       style="fill:#000000;fill-opacity:1;stroke:#000000;stroke-width:1.28795;stroke-opacity:1" />
    <path
       d="m 382.75,625.88 -25.09,-3.74 -15.4,9.06 -12.45,1.65 1.71,-7.23 -15.97,-19.65 12.53,-17.8 -9.72,-10.73 15.41,-3.75 11.73,11.63 32.65,-0.94 12.05,17.96 -11.93,3.04 z"
       id="36-8"
       style="fill:#000000;fill-opacity:1;stroke:#000000;stroke-width:1.28795;stroke-opacity:1" />
    <path
       d="m 296,306.17 19.83,-8.47 5.87,-7.37 -2.76,-17.67 5.72,-21.31 14.07,3.04 11.78,4.87 22.85,-6.93 17.43,-14.23 13.62,-3.01 12.57,-11.24 17.05,3.51 -6.85,12.75 5.3,22.2 8.79,-3.87 16.84,19.66 5.23,11.44 -17.57,10.75 -8.66,16.12 9.91,9.99 2.48,18.31 7.77,15.51 -23.69,15.96 -13.07,9.12 -12.83,-10.57 -16.33,2.63 -7.57,-25.64 -9.35,-12.7 -3.44,-14.74 -19.45,-9.49 -12.7,-12.6 z"
       id="37-1"
       style="fill:#000000;fill-opacity:1;stroke:#000000;stroke-width:1.28795;stroke-opacity:1" />
    <path
       d="m 669.81,440.38 -9.07,8.08 -16.46,2.35 -10.7,-4.03 -7.28,-17.57 -19.41,-3.78 7.75,-13.3 -10.91,-16.95 16.65,-8.99 -3.88,-10.4 10.22,-5.63 -18.57,-13.29 15.17,-10.65 3.37,5.71 21.21,7.24 11.18,8.19 1.42,15.64 11.69,13.31 25.99,2.79 -9.03,9.69 -17.4,4.62 -11.79,13.3 z"
       id="38-8"
       style="fill:#000000;fill-opacity:1;stroke:#000000;stroke-width:1.28795;stroke-opacity:1" />
    <path
       d="m 769.23,385.72 -20.77,-0.63 5.17,-14.23 8.85,-1.22 z"
       id="39-5"
       style="fill:#000000;fill-opacity:1;stroke:#000000;stroke-width:1.28795;stroke-opacity:1" />
    <path
       d="m 758.32,358.3 -12.22,-0.76 0.29,-4.35 13.85,-0.08 z"
       id="40-0"
       style="fill:#000000;fill-opacity:1;stroke:#000000;stroke-width:1.28795;stroke-opacity:1" />
    <path
       d="m 748.2,369.38 -8.29,-2.48 -1.75,-4.99 10.87,0.98 4.11,0.53 z"
       id="41-9"
       style="fill:#000000;fill-opacity:1;stroke:#000000;stroke-width:1.28795;stroke-opacity:1" />
    <path
       d="m 491.86,432.87 11.84,6.3 -10.99,6.31 9.22,19 21.06,-5.93 28.25,3.34 8.26,13.03 -8.23,14.49 -15.44,3.25 -39.88,1.92 -11.57,-2.95 -12.17,6.81 -27.62,2.52 -41.23,1.03 6.54,-17.29 -14.82,-3.61 -16.12,1.64 -18.72,-4.36 -2.7,-9.62 4.44,-16.03 8.56,-11.77 12.37,-0.47 3.9,-12.53 8.78,-12.76 8.78,-2.02 16.55,-16.38 8.05,-1.4 25.25,8.76 3.61,5.23 -9.77,25.04 -11.6,10.73 13.55,5.74 14.27,-7.63 14.75,-14.73 z"
       id="42-9"
       style="fill:#000000;fill-opacity:1;stroke:#000000;stroke-width:1.28795;stroke-opacity:1" />
  </g>
</svg>
